<svg xmlns="http://www.w3.org/2000/svg" width="44.823" height="45.038" viewBox="0 0 44.823 45.038">
  <path id="Icon_akar-whatsapp-fill" data-name="Icon akar-whatsapp-fill" d="M32.681,26.989c-.559-.28-3.3-1.627-3.811-1.815s-.882-.278-1.255.281-1.439,1.813-1.764,2.184-.651.418-1.209.141a15.31,15.31,0,0,1-4.485-2.768,16.787,16.787,0,0,1-3.1-3.864c-.325-.557-.036-.859.244-1.137.251-.25.557-.651.837-.976a3.781,3.781,0,0,0,.557-.933,1.016,1.016,0,0,0-.047-.976c-.139-.28-1.254-3.025-1.719-4.142-.452-1.087-.912-.938-1.254-.957-.327-.015-.7-.019-1.07-.019a2.043,2.043,0,0,0-1.486.7,6.246,6.246,0,0,0-1.952,4.652c0,2.744,2,5.4,2.276,5.769s3.931,6.005,9.526,8.42a31.862,31.862,0,0,0,3.179,1.173,7.614,7.614,0,0,0,3.513.221c1.07-.16,3.3-1.349,3.764-2.652a4.675,4.675,0,0,0,.325-2.652c-.139-.233-.51-.372-1.07-.651ZM22.506,40.882H22.5a18.525,18.525,0,0,1-9.446-2.588l-.673-.4L5.358,39.737l1.875-6.846-.441-.7a18.549,18.549,0,1,1,15.715,8.692ZM38.292,6.546A22.323,22.323,0,0,0,3.166,33.473L0,45.038l11.83-3.1A22.3,22.3,0,0,0,22.5,44.652h.009A22.327,22.327,0,0,0,38.292,6.546" transform="translate(0 0)" fill="#cbdc00"/>
</svg>
