<svg xmlns="http://www.w3.org/2000/svg" width="20.885" height="14.62" viewBox="0 0 20.885 14.62">
  <path id="Icon_awesome-car-side" data-name="Icon awesome-car-side" d="M17.752,7.471H17.23L13.68,3.034a2.089,2.089,0,0,0-1.631-.784H5.069A2.088,2.088,0,0,0,3.13,3.563L1.566,7.545A2.084,2.084,0,0,0,0,9.56v3.655a.522.522,0,0,0,.522.522H2.089a3.133,3.133,0,1,0,6.266,0h4.177a3.133,3.133,0,1,0,6.266,0h1.566a.522.522,0,0,0,.522-.522V10.6A3.133,3.133,0,0,0,17.752,7.471ZM5.221,15.3a1.566,1.566,0,1,1,1.566-1.566A1.568,1.568,0,0,1,5.221,15.3Zm2.35-7.832H3.816L5.069,4.339h2.5Zm1.566,0V4.339h2.912l2.506,3.133ZM15.664,15.3a1.566,1.566,0,1,1,1.566-1.566A1.568,1.568,0,0,1,15.664,15.3Z" transform="translate(0 -2.25)" fill="#cbdc00"/>
</svg>
