<svg xmlns="http://www.w3.org/2000/svg" width="20.528" height="12.317" viewBox="0 0 20.528 12.317">
  <path id="Icon_awesome-bed" data-name="Icon awesome-bed" d="M5.645,10.658A2.566,2.566,0,1,0,3.079,8.092,2.569,2.569,0,0,0,5.645,10.658Zm11.29-4.106H9.751a.513.513,0,0,0-.513.513v4.619H2.053V5.013A.513.513,0,0,0,1.54,4.5H.513A.513.513,0,0,0,0,5.013V16.3a.513.513,0,0,0,.513.513H1.54a.513.513,0,0,0,.513-.513v-1.54H18.475V16.3a.513.513,0,0,0,.513.513h1.026a.513.513,0,0,0,.513-.513V10.145A3.592,3.592,0,0,0,16.936,6.553Z" transform="translate(0 -4.5)" fill="#cbdc00"/>
</svg>
