<svg xmlns="http://www.w3.org/2000/svg" width="36" height="35.999" viewBox="0 0 36 35.999">
  <path id="Icon_fa-regular-message" data-name="Icon fa-regular-message" d="M11.25,25.875a3.376,3.376,0,0,1,3.375,3.375v1.125l5.1-3.825a3.386,3.386,0,0,1,2.025-.675H31.5a1.128,1.128,0,0,0,1.125-1.125V4.5A1.128,1.128,0,0,0,31.5,3.375H4.5A1.128,1.128,0,0,0,3.375,4.5V24.75A1.128,1.128,0,0,0,4.5,25.875Zm3.375,8.719-.014.014-.359.267-1.2.9a1.136,1.136,0,0,1-1.181.105,1.107,1.107,0,0,1-.619-1.005V29.25H4.5A4.5,4.5,0,0,1,0,24.75V4.5A4.5,4.5,0,0,1,4.5,0h27A4.5,4.5,0,0,1,36,4.5V24.75a4.5,4.5,0,0,1-4.5,4.5H21.748Z" fill="#cbdc00"/>
</svg>
