<svg xmlns="http://www.w3.org/2000/svg" width="19.32" height="22.942" viewBox="0 0 19.32 22.942">
  <path id="Icon_akar-light-bulb" data-name="Icon akar-light-bulb" d="M17.448,24.442H13.872A3.622,3.622,0,0,1,10.3,21.4l-.5-2.38a1.2,1.2,0,0,1-.123-.283,9.668,9.668,0,1,1,11.986-.016,1.2,1.2,0,0,1-.13.3l-.5,2.374a3.622,3.622,0,0,1-3.575,3.041Zm-5.063-4.83.28,1.32q.007.034.013.069a1.2,1.2,0,0,0,1.193,1.026h3.577A1.2,1.2,0,0,0,18.642,21q.005-.034.012-.068l.279-1.32Zm-.75-2.415H19.67a1.207,1.207,0,0,1,.132-.106A7.241,7.241,0,1,0,8.415,11.16h0a7.238,7.238,0,0,0,3.1,5.945A1.208,1.208,0,0,1,11.635,17.2Z" transform="translate(-6 -1.5)" fill="#36414a"/>
</svg>
