<svg xmlns="http://www.w3.org/2000/svg" width="19.244" height="16.839" viewBox="0 0 19.244 16.839">
  <path id="Icon_awesome-bath" data-name="Icon awesome-bath" d="M18.342,10.669H3.007V5.257a1.2,1.2,0,0,1,2.218-.643,2.554,2.554,0,0,0,.257,3.121.451.451,0,0,0,.018.617l.425.425a.451.451,0,0,0,.638,0l3.572-3.572a.451.451,0,0,0,0-.638L9.71,4.142a.451.451,0,0,0-.617-.018A2.55,2.55,0,0,0,6.68,3.546,3.006,3.006,0,0,0,1.2,5.257v5.412H.9a.9.9,0,0,0-.9.9v.6a.9.9,0,0,0,.9.9h.3v1.2a3.6,3.6,0,0,0,1.2,2.689v1.22a.9.9,0,0,0,.9.9h.6a.9.9,0,0,0,.9-.9v-.3h9.622v.3a.9.9,0,0,0,.9.9h.6a.9.9,0,0,0,.9-.9v-1.22a3.6,3.6,0,0,0,1.2-2.689v-1.2h.3a.9.9,0,0,0,.9-.9v-.6A.9.9,0,0,0,18.342,10.669Z" transform="translate(0 -2.25)" fill="#cbdc00"/>
</svg>
